# xmcd
#
# Track frame offsets:
# 150
# 11423
# 29033
# 43263
# 54673
# 65098
# 76015
# 89745
# 101983
# 116278
# 137243
# 153185
# 165450
# 177340
# 191320
# 204223
# 217390
#
# Disc length: 3014 seconds
#
#
# Revision: 0
# Processed by: cddbd v1.5.1PL0 Copyright (c) Steve Scherf et al.
# Submitted via: FreeRIP 2.90 
#
DISCID=f00bc411
DTITLE=더 월드 히트 팝  - 오리지날 사운더
DYEAR=1900
DGENRE=Bass
TTITLE0=crazy love 크레지 러브
TTITLE1=yesterday once more 예스터 데이 원스 모
TTITLE2=green green grass of home 고향의 푸른잔디
TTITLE3=you are my destiny 유 아 마이 데스티니
TTITLE4=stuck on you 스턱 언 유
TTITLE5=pretty little baby 프리티 리틀 베이비
TTITLE6=the last waltz 마지막 왈츠
TTITLE7=godfather" parie plus bas 영화"대부"주제가
TTITLE8=ob-la-di ob-la-da 오브라디 오브라다
TTITLE9=my way 마이 웨이
TTITLE10=little moses 리틀 모세
TTITLE11=moody river 머디 리버
TTITLE12=poetry in motion 포터 인 모션
TTITLE13=weve onry just begun 위브 온리 쟈스트 비건
TTITLE14=ileft my heart in sanfrancisco 아이 렛 마이 핫 인 센프란시스코
TTITLE15=indian reservation 인디안 레지베숀
TTITLE16=rack and rambling boy 록 엔드 렘브링 보이
EXTD=
EXTT0=
EXTT1=
EXTT2=
EXTT3=
EXTT4=
EXTT5=
EXTT6=
EXTT7=
EXTT8=
EXTT9=
EXTT10=
EXTT11=
EXTT12=
EXTT13=
EXTT14=
EXTT15=
EXTT16=
PLAYORDER=
